<svg xmlns="http://www.w3.org/2000/svg" xmlns:xlink="http://www.w3.org/1999/xlink" version="1.1" width="480" height="480" viewBox="0 0 480 480" xml:space="preserve">
<g transform="matrix(1 0 0 1 0 0)">
<line style="stroke: rgb(51,51,51); stroke-width: 1;"  x1="30" y1="443" x2="462" y2="443" />
<line style="stroke: rgb(51,51,51); stroke-width: 1;"  x1="30" y1="413" x2="462" y2="413" />
<line style="stroke: rgb(51,51,51); stroke-width: 1;"  x1="30" y1="383" x2="462" y2="383" />
<line style="stroke: rgb(51,51,51); stroke-width: 1;"  x1="30" y1="353" x2="462" y2="353" />
<line style="stroke: rgb(51,51,51); stroke-width: 1;"  x1="30" y1="323" x2="462" y2="323" />
<line style="stroke: rgb(51,51,51); stroke-width: 1;"  x1="30" y1="293" x2="462" y2="293" />
<line style="stroke: rgb(51,51,51); stroke-width: 1;"  x1="30" y1="263" x2="462" y2="263" />
<line style="stroke: rgb(51,51,51); stroke-width: 1;"  x1="30" y1="233" x2="462" y2="233" />
<line style="stroke: rgb(51,51,51); stroke-width: 1;"  x1="30" y1="203" x2="462" y2="203" />
<line style="stroke: rgb(51,51,51); stroke-width: 1;"  x1="30" y1="173" x2="462" y2="173" />
<line style="stroke: rgb(51,51,51); stroke-width: 1;"  x1="30" y1="143" x2="462" y2="143" />
<line style="stroke: rgb(51,51,51); stroke-width: 1;"  x1="30" y1="113" x2="462" y2="113" />
<line style="stroke: rgb(51,51,51); stroke-width: 1;"  x1="30" y1="83" x2="462" y2="83" />

<line style="stroke: rgb(51,51,51); stroke-width: 1;"  x1="30" y1="82" x2="30" y2="444" />
<line style="stroke: rgb(51,51,51); stroke-width: 1;"  x1="48" y1="82" x2="48" y2="444" />
<line style="stroke: rgb(51,51,51); stroke-width: 1;"  x1="66" y1="82" x2="66" y2="444" />
<line style="stroke: rgb(51,51,51); stroke-width: 1;"  x1="84" y1="82" x2="84" y2="444" />
<line style="stroke: rgb(51,51,51); stroke-width: 1;"  x1="102" y1="82" x2="102" y2="444" />
<line style="stroke: rgb(51,51,51); stroke-width: 1;"  x1="120" y1="82" x2="120" y2="444" />
<line style="stroke: rgb(51,51,51); stroke-width: 1;"  x1="138" y1="82" x2="138" y2="444" />
<line style="stroke: rgb(51,51,51); stroke-width: 1;"  x1="156" y1="82" x2="156" y2="444" />
<line style="stroke: rgb(51,51,51); stroke-width: 1;"  x1="174" y1="82" x2="174" y2="444" />
<line style="stroke: rgb(51,51,51); stroke-width: 1;"  x1="192" y1="82" x2="192" y2="444" />
<line style="stroke: rgb(51,51,51); stroke-width: 1;"  x1="210" y1="82" x2="210" y2="444" />
<line style="stroke: rgb(51,51,51); stroke-width: 1;"  x1="228" y1="82" x2="228" y2="444" />
<line style="stroke: rgb(51,51,51); stroke-width: 1;"  x1="246" y1="82" x2="246" y2="444" />
<line style="stroke: rgb(51,51,51); stroke-width: 1;"  x1="264" y1="82" x2="264" y2="444" />
<line style="stroke: rgb(51,51,51); stroke-width: 1;"  x1="282" y1="82" x2="282" y2="444" />
<line style="stroke: rgb(51,51,51); stroke-width: 1;"  x1="300" y1="82" x2="300" y2="444" />
<line style="stroke: rgb(51,51,51); stroke-width: 1;"  x1="318" y1="82" x2="318" y2="444" />
<line style="stroke: rgb(51,51,51); stroke-width: 1;"  x1="336" y1="82" x2="336" y2="444" />
<line style="stroke: rgb(51,51,51); stroke-width: 1;"  x1="354" y1="82" x2="354" y2="444" />
<line style="stroke: rgb(51,51,51); stroke-width: 1;"  x1="372" y1="82" x2="372" y2="444" />
<line style="stroke: rgb(51,51,51); stroke-width: 1;"  x1="390" y1="82" x2="390" y2="444" />
<line style="stroke: rgb(51,51,51); stroke-width: 1;"  x1="408" y1="82" x2="408" y2="444" />
<line style="stroke: rgb(51,51,51); stroke-width: 1;"  x1="426" y1="82" x2="426" y2="444" />
<line style="stroke: rgb(51,51,51); stroke-width: 1;"  x1="444" y1="82" x2="444" y2="444" />
<line style="stroke: rgb(51,51,51); stroke-width: 1;"  x1="462" y1="82" x2="462" y2="444" />

<line style="stroke: rgb(255,255,255); stroke-width: 1;"  x1="30" y1="33" x2="30" y2="39" />
<line style="stroke: rgb(255,255,255); stroke-width: 1;"  x1="49" y1="33" x2="49" y2="39" />
<line style="stroke: rgb(255,255,255); stroke-width: 1;"  x1="68" y1="33" x2="68" y2="39" />
<line style="stroke: rgb(255,255,255); stroke-width: 1;"  x1="87" y1="33" x2="87" y2="39" />
<line style="stroke: rgb(255,255,255); stroke-width: 1;"  x1="106" y1="33" x2="106" y2="39" />
<line style="stroke: rgb(255,255,255); stroke-width: 1;"  x1="125" y1="33" x2="125" y2="39" />
<line style="stroke: rgb(255,255,255); stroke-width: 1;"  x1="144" y1="33" x2="144" y2="39" />
<line style="stroke: rgb(255,255,255); stroke-width: 1;"  x1="163" y1="33" x2="163" y2="39" />
<line style="stroke: rgb(255,255,255); stroke-width: 1;"  x1="182" y1="33" x2="182" y2="39" />
<line style="stroke: rgb(255,255,255); stroke-width: 1;"  x1="201" y1="33" x2="201" y2="39" />
<line style="stroke: rgb(255,255,255); stroke-width: 1;"  x1="220" y1="33" x2="220" y2="39" />
<line style="stroke: rgb(255,255,255); stroke-width: 1;"  x1="239" y1="33" x2="239" y2="39" />
<line style="stroke: rgb(255,255,255); stroke-width: 1;"  x1="258" y1="33" x2="258" y2="39" />
<line style="stroke: rgb(255,255,255); stroke-width: 1;"  x1="277" y1="33" x2="277" y2="39" />
<line style="stroke: rgb(255,255,255); stroke-width: 1;"  x1="296" y1="33" x2="296" y2="39" />
<line style="stroke: rgb(255,255,255); stroke-width: 1;"  x1="315" y1="33" x2="315" y2="39" />
<line style="stroke: rgb(255,255,255); stroke-width: 1;"  x1="334" y1="33" x2="334" y2="39" />
<line style="stroke: rgb(255,255,255); stroke-width: 1;"  x1="353" y1="33" x2="353" y2="39" />
<line style="stroke: rgb(255,255,255); stroke-width: 1;"  x1="372" y1="33" x2="372" y2="39" />
<line style="stroke: rgb(255,255,255); stroke-width: 1;"  x1="391" y1="33" x2="391" y2="39" />
<line style="stroke: rgb(255,255,255); stroke-width: 1;"  x1="410" y1="33" x2="410" y2="39" />
<line style="stroke: rgb(255,255,255); stroke-width: 1;"  x1="429" y1="33" x2="429" y2="39" />
<line style="stroke: rgb(255,255,255); stroke-width: 1;"  x1="448" y1="33" x2="448" y2="39" />

<text x="9" y="449" style="font-family: 'Bebas Neue', sans-serif; font-size: 18px; fill: rgb(255,255,255);">0</text>
<text x="3" y="389" style="font-family: 'Bebas Neue', sans-serif; font-size: 18px; fill: rgb(255,255,255);">10</text>
<text x="3" y="329" style="font-family: 'Bebas Neue', sans-serif; font-size: 18px; fill: rgb(255,255,255);">20</text>
<text x="3" y="269" style="font-family: 'Bebas Neue', sans-serif; font-size: 18px; fill: rgb(255,255,255);">30</text>
<text x="3" y="209" style="font-family: 'Bebas Neue', sans-serif; font-size: 18px; fill: rgb(255,255,255);">40</text>
<text x="3" y="149" style="font-family: 'Bebas Neue', sans-serif; font-size: 18px; fill: rgb(255,255,255);">50</text>
<text x="3" y="89" style="font-family: 'Bebas Neue', sans-serif; font-size: 18px; fill: rgb(255,255,255);">60</text>

<text x="33" y="467" style="font-family: 'Bebas Neue', sans-serif; font-size: 18px; fill: rgb(255,255,255);">0</text>
<text x="70" y="467" style="font-family: 'Bebas Neue', sans-serif; font-size: 18px; fill: rgb(255,255,255);">2</text>
<text x="106" y="467" style="font-family: 'Bebas Neue', sans-serif; font-size: 18px; fill: rgb(255,255,255);">4</text>
<text x="140" y="467" style="font-family: 'Bebas Neue', sans-serif; font-size: 18px; fill: rgb(255,255,255);">6</text>
<text x="177" y="467" style="font-family: 'Bebas Neue', sans-serif; font-size: 18px; fill: rgb(255,255,255);">8</text>
<text x="207" y="467" style="font-family: 'Bebas Neue', sans-serif; font-size: 18px; fill: rgb(255,255,255);">10</text>
<text x="244" y="467" style="font-family: 'Bebas Neue', sans-serif; font-size: 18px; fill: rgb(255,255,255);">12</text>
<text x="280" y="467" style="font-family: 'Bebas Neue', sans-serif; font-size: 18px; fill: rgb(255,255,255);">14</text>
<text x="316" y="467" style="font-family: 'Bebas Neue', sans-serif; font-size: 18px; fill: rgb(255,255,255);">16</text>
<text x="352" y="467" style="font-family: 'Bebas Neue', sans-serif; font-size: 18px; fill: rgb(255,255,255);">18</text>
<text x="388" y="467" style="font-family: 'Bebas Neue', sans-serif; font-size: 18px; fill: rgb(255,255,255);">20</text>
<text x="424" y="467" style="font-family: 'Bebas Neue', sans-serif; font-size: 18px; fill: rgb(255,255,255);">22</text>

<text x="2" y="66" style="font-family: 'Bebas Neue', sans-serif; font-size: 16px; fill: rgb(255,255,255);">m</text>
<text x="455" y="470" style="font-family: 'Bebas Neue', sans-serif; font-size: 16px; fill: rgb(255,255,255);">H</text>
</g>
</svg>